<?xml version="1.0" encoding="UTF-8" standalone="no"?>
<!-- Created with Inkscape (http://www.inkscape.org/) -->

<svg
   xmlns:osb="http://www.openswatchbook.org/uri/2009/osb"
   xmlns:dc="http://purl.org/dc/elements/1.1/"
   xmlns:cc="http://creativecommons.org/ns#"
   xmlns:rdf="http://www.w3.org/1999/02/22-rdf-syntax-ns#"
   xmlns:svg="http://www.w3.org/2000/svg"
   xmlns="http://www.w3.org/2000/svg"
   xmlns:sodipodi="http://sodipodi.sourceforge.net/DTD/sodipodi-0.dtd"
   xmlns:inkscape="http://www.inkscape.org/namespaces/inkscape"
   inkscape:version="0.91 r13725"
   version="1.1"
   id="svg2"
   viewBox="0 0 219.56111 110.62245"
   height="31.220114mm"
   width="61.965023mm"
   sodipodi:docname="signature.svg">
  <defs
     id="defs4">
    <linearGradient
       id="linearGradient5806"
       osb:paint="solid">
      <stop
         style="stop-color:#000000;stop-opacity:1;"
         offset="0"
         id="stop5808" />
    </linearGradient>
  </defs>
  <sodipodi:namedview
     inkscape:window-maximized="0"
     inkscape:window-y="248"
     inkscape:window-x="1680"
     inkscape:window-height="861"
     inkscape:window-width="1440"
     showgrid="false"
     inkscape:current-layer="layer1"
     inkscape:document-units="px"
     inkscape:cy="50.726508"
     inkscape:cx="119.0988"
     inkscape:zoom="2.8"
     inkscape:pageshadow="2"
     inkscape:pageopacity="0.0"
     borderopacity="1.0"
     bordercolor="#666666"
     pagecolor="#ffffff"
     id="base"
     fit-margin-top="0"
     fit-margin-left="0"
     fit-margin-right="0"
     fit-margin-bottom="0" />
  <metadata
     id="metadata7">
    <rdf:RDF>
      <cc:Work
         rdf:about="">
        <dc:format>image/svg+xml</dc:format>
        <dc:type
           rdf:resource="http://purl.org/dc/dcmitype/StillImage" />
        <dc:title></dc:title>
      </cc:Work>
    </rdf:RDF>
  </metadata>
  <g
     inkscape:label="Layer 1"
     inkscape:groupmode="layer"
     id="layer1"
     transform="translate(-49.093635,-223.85874)">
    <path
       style="color:#000000;font-style:normal;font-variant:normal;font-weight:normal;font-stretch:normal;font-size:medium;line-height:normal;font-family:sans-serif;text-indent:0;text-align:start;text-decoration:none;text-decoration-line:none;text-decoration-style:solid;text-decoration-color:#000000;letter-spacing:normal;word-spacing:normal;text-transform:none;direction:ltr;block-progression:tb;writing-mode:lr-tb;baseline-shift:baseline;text-anchor:start;white-space:normal;clip-rule:nonzero;display:inline;overflow:visible;visibility:visible;opacity:1;isolation:auto;mix-blend-mode:normal;color-interpolation:sRGB;color-interpolation-filters:linearRGB;solid-color:#000000;solid-opacity:1;fill:#000000;fill-opacity:1;fill-rule:evenodd;stroke:#ff0000;stroke-width:2;stroke-linecap:butt;stroke-linejoin:miter;stroke-miterlimit:4;stroke-dasharray:none;stroke-dashoffset:0;stroke-opacity:1;color-rendering:auto;image-rendering:auto;shape-rendering:auto;text-rendering:auto;enable-background:accumulate"
       d="m 103.30469,223.85938 c -3.425507,0.0407 -6.551245,1.24324 -9.250002,3.1582 -3.598344,2.55327 -6.461246,6.3603 -8.40625,10.4082 l -0.0098,0.0215 -0.0078,0.0234 c -2.642907,7.39034 -2.60154,15.15649 -3.574218,22.73828 l -0.002,0.0137 0,0.0137 c -0.32639,5.031 -2.054347,8.81309 -4.789063,11.83398 -2.721965,3.00681 -6.466641,5.25413 -10.833984,7.12891 -1.65001,-0.43962 -3.453477,-0.003 -4.605469,0.57226 -0.303118,0.15129 -0.560892,0.31063 -0.767578,0.47461 -0.206687,0.16399 -0.382243,0.30627 -0.464844,0.59766 -0.0413,0.14569 -0.02757,0.36245 0.08008,0.51758 0.107645,0.15512 0.25578,0.22725 0.388672,0.26758 0.250736,0.0761 0.525168,0.0624 0.878906,0.0215 3.232098,0.38243 6.385624,-1.3044 9.267578,-3.05664 2.674745,-1.62626 5.102501,-3.1615 7.029297,-3.48828 -0.338227,2.27106 -0.782903,5.43248 -0.789062,8.45703 -0.0033,1.63837 0.114787,3.19015 0.455078,4.46289 0.340291,1.27274 0.915411,2.31517 1.910156,2.76563 l 0.613281,0.27734 0.02148,-0.67383 c 0.148158,-4.67043 1.216589,-9.85797 3.628906,-13.6543 2.412317,-3.79632 6.08714,-6.22655 11.71875,-5.56054 l 0.04492,0.006 0.04492,-0.004 c 2.931211,-0.24363 4.979176,0.19034 6.410166,1.04102 1.43098,0.85067 2.28239,2.12481 2.79101,3.69336 1.01724,3.13708 0.56075,7.41424 0.3457,11.05078 l -0.002,0.004 0,0.002 c -0.18743,4.09236 2.56381,6.8765 5.91992,7.84765 3.31146,0.95823 7.25473,0.21353 9.75391,-2.57617 l 0.008,-0.006 c 1.73325,-1.01337 4.54451,-3.24487 6.91797,-5.14648 1.18807,-0.95189 2.26118,-1.81843 3.00781,-2.39258 0.13182,-0.10137 0.18465,-0.13295 0.29492,-0.21484 -0.1773,2.25577 -0.63252,5.31068 -0.875,8.23632 -0.13371,1.61337 -0.18962,3.13365 -0.0605,4.375 0.12908,1.24135 0.41284,2.26567 1.21094,2.75782 l 0.41796,0.25781 0.22071,-0.4375 c 1.67551,-3.33511 2.28433,-7.19896 2.90234,-10.93945 0.618,-3.7405 1.2462,-7.35674 2.85547,-10.20313 l 0.0469,-0.082 0.01,-0.0937 c 0.24278,-2.44308 1.93414,-4.21815 4.20116,-5.25391 2.23409,-1.02071 4.99749,-1.25763 7.27149,-0.65039 1.31792,1.18842 1.94326,2.49888 2.16407,3.97071 0.22577,1.50489 0.0292,3.1781 -0.30079,4.94726 -0.65318,3.50227 -1.82543,7.37573 -0.91796,11.1543 -0.82693,1.89689 -0.99889,4.77695 -0.60938,6.46289 0.10009,0.43322 0.22199,0.7942 0.48243,1.07226 0.13021,0.13904 0.3172,0.25878 0.5371,0.28321 0.2199,0.0244 0.43582,-0.0506 0.60743,-0.16602 0.34321,-0.23084 0.60191,-0.6116 0.89648,-1.19336 0.28743,-0.56765 0.59273,-1.35034 0.92187,-2.36523 l 0.002,-0.004 c 1.44012,-2.96221 4.04665,-6.33453 5.33398,-9.72461 0.64393,-1.69572 0.95896,-3.416 0.57617,-5.09375 -0.34638,-1.51815 -1.37139,-2.95222 -3.04102,-4.26562 2.46739,-2.00748 5.56488,-2.27748 8.60742,-1.31641 3.20269,1.01166 6.27418,3.34938 8.17969,6.20313 l 0.0195,0.0273 0.0215,0.0254 c 1.03435,1.13934 1.34502,2.20029 1.25782,3.24805 -0.0872,1.04775 -0.60455,2.10456 -1.33985,3.11132 -1.47058,2.01353 -3.75698,3.74647 -4.83984,4.98243 l -0.0156,0.0195 -0.0137,0.0195 c -2.79787,3.99382 -1.90659,8.67273 0.6875,12.26562 2.59409,3.5929 6.87565,6.20459 11.06446,6.22657 l 0.18359,0 0.13086,-0.12696 c 1.85604,-1.79541 2.47884,-4.58464 3.06836,-5.84961 0.14738,-0.31624 0.29936,-0.52372 0.37109,-0.58007 0.0717,-0.0564 -0.005,-0.0628 0.11719,0.006 0.24473,0.13724 0.91992,0.97958 1.81641,2.75586 l 0,0.002 0.002,0.002 c 1.43005,2.76992 3.04563,4.06515 4.73828,4.27344 1.69265,0.20828 3.31175,-0.65391 4.78906,-1.83789 1.47732,-1.18398 2.84098,-2.72039 4.01954,-4.02149 0.58928,-0.65054 1.1322,-1.24309 1.60742,-1.69531 0.21396,-0.2036 0.33587,-0.2464 0.51758,-0.38476 -0.049,1.12966 0.0288,1.97216 0.375,2.45117 0.22208,0.30729 0.63215,0.48108 0.97852,0.40429 0.34636,-0.0768 0.60303,-0.30397 0.82227,-0.58593 0.43844,-0.56392 0.73978,-1.42107 0.75,-2.39649 0.009,-0.8719 -0.29469,-1.8283 -0.94141,-2.69531 1.29172,-1.66777 2.5708,-3.99031 2.90234,-5.50391 0.0868,-0.39633 0.13393,-0.73924 0,-1.08593 -0.067,-0.17335 -0.20704,-0.35221 -0.39843,-0.44336 -0.1914,-0.0911 -0.39859,-0.0934 -0.58985,-0.0566 -0.38252,0.0735 -0.76921,0.29152 -1.27148,0.6582 -0.38371,0.28012 -0.8931,0.7496 -1.41211,1.23047 -1.44092,-2.09589 -1.8533,-3.6975 -1.52735,-4.78321 0.35087,-1.16872 1.46109,-1.96819 3.05664,-2.42382 3.19109,-0.91127 8.12289,-0.25908 10.83789,1.29297 l 0.28125,0.16015 0.24218,-0.21484 c 0.73063,-0.64938 1.45663,-1.32351 2.09375,-1.86133 0.63712,-0.53782 1.21615,-0.93352 1.49219,-1.02539 0.13802,-0.0459 0.1257,-0.0165 0.0879,-0.0449 -0.0378,-0.0284 0.0196,0.002 0.0312,0.22851 0.0233,0.45245 -0.15825,1.46711 -0.66601,3.06641 l 0.0117,-0.0332 c -0.95798,2.3645 -1.73953,6.38314 -1.35351,9.14257 0.0965,0.68986 0.26637,1.30486 0.55859,1.80665 0.29222,0.50178 0.7366,0.89576 1.30664,1.02734 1.12002,0.25852 2.47761,-0.42173 4.27539,-2.08984 l 0.01,-0.008 c 2.93786,-1.66542 5.81087,-4.81529 8.57812,-7.63281 2.58528,-2.63223 5.0812,-4.86663 7.20118,-5.45313 0.21776,3.0475 0.52484,7.45319 1.91015,10.57422 0.73149,1.648 1.79757,2.96333 3.36328,3.34961 1.56572,0.38629 3.48567,-0.18752 5.85547,-1.97851 l 0.0996,-0.0742 0.0469,-0.11719 c 1.32146,-3.29726 3.81319,-4.9493 6.31836,-5.03515 2.46025,-0.0843 4.9654,1.35823 6.46875,4.4746 -0.11068,0.53781 -0.31374,0.93445 -0.65625,1.21485 -0.37287,0.30525 -0.8986,0.51214 -1.54102,0.63867 -1.28484,0.25307 -3.00191,0.16982 -4.67187,0.14062 -1.66997,-0.0292 -3.29754,-0.0212 -4.52149,0.58204 -0.61197,0.30163 -1.12153,0.78088 -1.39258,1.45312 -0.27104,0.67224 -0.31007,1.50674 -0.10937,2.53516 l 0.0781,0.39648 0.40235,-0.0351 c 2.58081,-0.22174 6.77546,-1.498 10.26367,-1.70118 1.7441,-0.10158 3.28363,0.0769 4.30859,0.69727 0.99334,0.60121 1.56443,1.61593 1.53516,3.43555 -6.15506,6.77145 -13.20024,13.77675 -22.41797,15.24609 l -0.0312,0.006 -0.0312,0.01 c -7.9426,2.46077 -16.56704,2.29213 -24.92578,3.44727 l -0.0137,0.002 -0.0137,0.004 c -12.60183,2.56677 -25.43292,3.04428 -38.31446,2.70703 l -0.006,-0.002 -0.006,0 c -12.42797,0.0136 -24.85446,0.0359 -37.27929,-0.0566 l -0.0645,-0.002 -0.0605,0.0176 c -6.33789,1.78023 -13.7526,0.21186 -20.71875,0.76172 l -0.0352,0 c -20.78502,-0.001 -41.570651,-0.0352 -62.357417,0.0254 l -0.08789,0.002 -0.08008,0.0312 c -0.350026,0.14262 -1.545767,0.32121 -2.921875,0.45704 -1.376107,0.13582 -2.984195,0.26423 -4.392578,0.43359 -1.408382,0.16936 -2.575201,0.33699 -3.28125,0.72852 -0.176512,0.0979 -0.343052,0.21319 -0.455078,0.41796 -0.112026,0.20478 -0.103875,0.50557 0.0039,0.70899 0.215562,0.40683 0.608158,0.61629 1.232422,0.89648 l 0.160156,0.0723 0.167969,-0.0566 c 7.093291,-2.38021 16.077037,-1.61265 24.113281,-1.8125 22.8876,0.003 45.77237,-0.0706 68.65625,0.0508 l 0.0547,0 0.0527,-0.0117 c 7.81816,-1.87327 16.78992,-0.1713 25.21875,-0.76367 11.57451,-0.2604 23.36101,0.58314 34.9043,-0.47656 8.64636,-0.7662 16.8929,-2.88653 25.39649,-3.16602 l 0.0137,0 0.0137,-0.002 c 8.40124,-0.78799 16.96146,-1.96634 24.50977,-5.67383 l 0.043,-0.0195 0.0371,-0.0293 c 2.43623,-1.91907 6.78306,-4.49557 10.1543,-7.4707 1.68562,-1.48757 3.1367,-3.07779 3.98437,-4.78516 0.84768,-1.70736 1.07049,-3.56539 0.25391,-5.41211 l -0.10156,-0.22851 -0.25,-0.0352 c -1.62051,-0.22327 -2.30824,-0.89611 -2.73438,-1.875 -0.42613,-0.97889 -0.51186,-2.30828 -0.64257,-3.66992 -0.13072,-1.36164 -0.31061,-2.77147 -1.09571,-3.9082 -0.76283,-1.1045 -2.13538,-1.83846 -4.30273,-1.96875 -0.75479,-0.68142 -1.59396,-1.02208 -2.44141,-1.01368 -0.89644,0.009 -1.77533,0.34945 -2.63476,0.85547 -1.71887,1.01204 -3.40285,2.71107 -4.98829,4.16992 -1.58543,1.45885 -3.09725,2.62836 -4.15234,2.72071 -0.52754,0.0462 -0.95181,-0.10085 -1.41601,-0.64453 -0.46396,-0.54339 -0.92272,-1.51387 -1.30274,-3.02344 -2.1e-4,-8.2e-4 2.1e-4,-10e-4 0,-0.002 -0.7103,-3.14122 -1.37574,-7.3376 -0.78125,-10.67383 0.29753,-1.66967 0.90408,-3.10938 1.93555,-4.13086 1.03075,-1.02078 2.49802,-1.66039 4.65429,-1.6836 1.00635,-0.004 1.71612,-0.0581 2.23047,-0.17578 0.25718,-0.0588 0.46894,-0.13147 0.65235,-0.25 0.18341,-0.11852 0.3484,-0.31054 0.39453,-0.54297 0.0461,-0.23242 -0.0231,-0.44666 -0.11524,-0.61718 -0.0921,-0.17052 -0.21356,-0.31741 -0.35742,-0.4668 -0.28772,-0.29879 -0.66838,-0.60176 -1.0957,-0.92969 -0.85464,-0.65586 -1.89649,-1.40574 -2.63281,-2.17187 -0.36816,-0.38307 -0.65677,-0.76761 -0.81446,-1.12305 -0.15768,-0.35544 -0.19417,-0.66409 -0.0957,-0.98437 l 0.47461,-1.54102 -1.20313,1.07227 c -0.42055,0.37512 -1.64156,0.78028 -3.07812,1.08593 -1.43656,0.30566 -3.10026,0.56386 -4.5332,0.88086 -1.43295,0.317 -2.63435,0.61308 -3.26563,1.35156 -0.31564,0.36925 -0.39309,0.94834 -0.14258,1.42579 0.25052,0.47744 0.7276,0.91101 1.47266,1.4082 l 0.15234,0.10156 0.18164,-0.0351 c 0.0945,-0.018 0.13226,-0.009 0.23633,0.0781 0.10407,0.0875 0.23904,0.2746 0.36328,0.54102 0.24849,0.53284 0.45426,1.36415 0.59766,2.27343 0.27641,1.75268 0.32631,3.74238 0.29883,4.72852 -6.33048,4.80356 -11.63748,10.99576 -17.98242,15.37109 -0.6044,-0.96608 -0.81417,-2.11414 -0.67969,-3.47265 0.15224,-1.53792 0.65405,-3.2617 1.14258,-4.97852 0.48852,-1.71681 0.96531,-3.42591 1.02929,-4.99414 0.064,-1.56823 -0.31962,-3.04533 -1.5664,-4.07227 l -0.58594,-0.48046 -0.14258,0.74414 c -0.55575,2.89863 -1.82403,3.96713 -3.55078,4.35156 -1.72674,0.38443 -3.97676,-0.033 -6.24609,-0.47266 -2.26933,-0.43969 -4.55712,-0.90468 -6.48633,-0.42187 -0.96461,0.2414 -1.84088,0.74206 -2.50195,1.59375 -0.66108,0.85168 -1.10473,2.03258 -1.30664,3.62109 l -0.0215,0.16992 0.0977,0.14063 c 2.58761,3.76974 2.16702,6.938 0.48047,9.98633 -1.63846,2.96139 -4.53348,5.72815 -7.07227,8.42578 -7.04325,-2.61792 -9.02123,-11.43927 -5.04883,-17.2793 0.85947,0.19394 1.94438,0.27467 3.20899,0.19922 1.41852,-0.0846 2.92306,-0.30853 4.10937,-0.65625 0.59316,-0.17386 1.10585,-0.37453 1.50586,-0.63086 0.40002,-0.25633 0.74384,-0.60983 0.74414,-1.09766 3e-4,-0.48782 -0.33937,-0.88 -0.84766,-1.21484 -0.48908,-0.32219 -1.21576,-0.62944 -2.1875,-0.94726 -3.43681,-1.96068 -6.63725,-2.08878 -9.73632,-1.53126 -2.84109,0.51112 -5.63656,1.56061 -8.5586,2.3086 1.49397,-3.6402 0.33301,-7.63354 -2.12109,-10.80078 -2.6465,-3.41555 -6.65598,-5.95011 -10.32031,-6.17774 l -0.0977,-0.006 -0.0937,0.0352 c -3.04992,1.18625 -5.54822,1.63701 -7.6543,1.14062 -2.10607,-0.49638 -3.88891,-1.92616 -5.54687,-4.71093 l -0.14649,-0.2461 -0.2832,0.0274 c -4.2471,0.40214 -8.50986,1.29461 -11.98047,3.23242 -3.4249,1.91229 -6.0553,4.89011 -7.04297,9.31836 -2.98259,2.47175 -6.48955,6.20092 -10.20117,8.63672 -1.87503,1.23051 -3.79292,2.1201 -5.68945,2.37109 -1.86985,0.24746 -3.72196,-0.12272 -5.60352,-1.41406 -1.7093,-2.65909 -1.41411,-5.85958 -1.27929,-9.38477 0.13614,-3.55975 0.0584,-7.43806 -2.73633,-11.11523 l -0.0703,-0.0937 -0.10938,-0.0469 c -7.926793,-3.40837 -15.601166,-2.48336 -21.01172,1.91407 l -0.04687,0.0391 -0.03516,0.0469 c -0.518613,0.71859 -0.976824,1.83745 -1.435547,3.13282 -0.458724,1.29537 -0.902517,2.75937 -1.314453,4.10351 -0.411937,1.34415 -0.7942,2.57223 -1.115235,3.36719 -0.01393,0.0345 -0.02131,0.0355 -0.03516,0.0684 -0.526018,-3.67949 -0.216565,-6.9445 1.240234,-9.36719 1.595912,-2.65403 4.420633,-4.43736 8.777344,-4.94531 l 0.07813,-0.008 0.07031,-0.0352 c 8.21104,-4.07978 16.970287,-7.73504 24.087897,-13.75977 4.31219,-3.62635 6.36196,-10.71776 7.60156,-15.69726 l 0,-0.006 0.002,-0.006 c 0.82143,-3.72681 -0.67406,-7.03122 -3.41211,-9.69141 -2.73804,-2.66018 -6.71492,-4.73811 -11.00781,-6.19726 l -0.19727,-0.0664 -0.0527,0.0312 c -1.13202,-0.23075 -2.24373,-0.3546 -3.32031,-0.34179 z m 0.006,0.89648 c 1.06806,-0.0114 2.16974,0.102 3.30078,0.3457 0.33382,0.11372 0.61425,0.28879 0.94336,0.41016 -0.29666,-0.0775 -0.54201,-0.18747 -0.84961,-0.25781 l -0.0469,-0.0117 -0.0488,0 c -2.38548,-0.0173 -4.54555,-0.24792 -6.60938,0.0469 -0.72274,0.10324 -1.416491,0.3947 -2.113281,0.66406 1.700995,-0.71593 3.500161,-1.17669 5.423831,-1.19726 z m 3.23242,1.38672 c 5.30475,1.22109 8.79538,3.50069 10.66992,6.44726 1.8762,2.94919 2.17279,6.60619 0.96289,10.69727 -1.61591,3.97825 -2.90742,6.9656 -4.41406,9.26367 -1.50975,2.30281 -3.22182,3.92684 -5.75195,5.24805 l -0.002,0 c -8.535878,4.51976 -16.822894,9.61612 -25.931638,12.64453 -0.364959,-2.63266 0.320875,-5.55335 1.193359,-8.64648 0.93203,-3.30424 1.959668,-6.76843 1.623047,-10.22852 l 0.002,0.0527 c 0.183864,-8.37873 2.771336,-17.61156 9.830078,-22.42968 l 0.04687,-0.0312 0.03711,-0.043 c 1.715431,-1.93893 3.409682,-2.66292 5.318354,-2.93555 1.89141,-0.27017 4.00649,-0.0601 6.41602,-0.0391 z m -10.035158,0.47461 c -0.80749,0.48967 -1.606104,1.03743 -2.373046,1.90429 l 0.08203,-0.0742 c -0.873576,0.59628 -1.669712,1.26475 -2.414063,1.97656 0.904699,-0.92559 1.746154,-1.94295 2.773438,-2.67188 0.616271,-0.43728 1.275844,-0.78259 1.93164,-1.13476 z m -4.966796,4.06054 c -3.694102,3.66727 -5.755176,8.67793 -6.759766,13.85938 0.402812,-2.27911 0.904019,-4.53644 1.689453,-6.73828 1.271124,-2.64111 3.066001,-5.00669 5.070313,-7.1211 z m 25.398434,0.17383 c 0.0896,0.0833 0.2296,0.14418 0.31641,0.22852 2.59045,2.51679 3.90534,5.44881 3.16016,8.84375 -1.23063,4.94269 -3.3359,11.88508 -7.30469,15.22265 -0.28948,0.24503 -0.62081,0.43446 -0.91602,0.67188 0.84486,-0.83086 1.62607,-1.71749 2.31836,-2.77344 1.57577,-2.40351 2.88156,-5.43974 4.50586,-9.43945 l 0.008,-0.0215 0.008,-0.0195 c 1.27104,-4.28034 0.97583,-8.253 -1.0625,-11.45703 -0.28482,-0.4477 -0.6817,-0.84064 -1.03321,-1.25586 z m -32.429684,15.46485 c -0.258159,1.77084 -0.477561,3.55054 -0.515625,5.28515 l 0,0.0273 0.002,0.0254 c 0.226596,2.32916 -0.274348,4.73092 -0.890625,7.13281 0.472036,-4.18917 0.801076,-8.36966 1.404297,-12.4707 z m 23.843754,12.31836 c -5.95728,3.9553 -12.646511,6.92367 -19.101567,10.1289 -0.214125,0.0261 -0.387888,0.0907 -0.595703,0.12305 6.790946,-2.97862 13.19264,-6.80431 19.69727,-10.25195 z m -27.146489,8.96484 c -0.121672,1.21143 -0.253799,2.42434 -0.01758,3.58594 l 0.09961,0.49218 0.478516,-0.15429 c 0.350662,-0.11258 0.679334,-0.27403 1.027344,-0.39258 -1.173966,0.83236 -2.177385,1.8054 -2.888672,2.98828 -0.351428,0.58443 -0.606951,1.23047 -0.847656,1.88477 0.0611,-0.4287 0.08081,-1.10183 0.136718,-1.4668 l 0.08203,-0.54492 -0.550782,0.0273 c -1.368202,0.0683 -2.818107,0.73451 -4.316406,1.58399 1.241294,-0.92187 2.516127,-1.81697 3.523438,-2.92969 1.34446,-1.48515 2.434432,-3.17687 3.273437,-5.07422 z m 11.871094,2.59375 c 0.799685,-0.0789 1.666351,0.0729 2.498047,0.0977 -1.114561,-0.10821 -2.142721,-0.0617 -3.126953,0.0566 0.218337,-0.0296 0.407854,-0.13248 0.628906,-0.1543 z m 2.734375,0.0918 0.08984,0 c -0.02044,-0.002 -0.03624,0.004 -0.05664,0.002 -0.01265,0.001 -0.02053,-0.003 -0.0332,-0.002 z m 53.19727,0.42187 c 0.22278,0.35808 0.48312,0.55705 0.71484,0.875 -2.49762,-0.65641 -5.41397,-0.40538 -7.83594,0.70117 -1.49207,0.68171 -2.74397,1.73294 -3.60937,3.04883 -0.0991,-0.38875 -0.19935,-0.77764 -0.46094,-1.26367 l -0.16016,-0.29883 c 3.23146,-1.7903 7.27004,-2.65873 11.35157,-3.0625 z m -58.945317,0.22461 c -2.87479,0.96198 -5.155039,2.82034 -6.746094,5.32422 -0.441175,0.69429 -0.781191,1.47083 -1.136718,2.23437 0.191537,-0.60098 0.372189,-1.22534 0.568359,-1.77929 0.440527,-1.24399 0.901174,-2.29498 1.294922,-2.85547 1.760093,-1.41865 3.831147,-2.30539 6.019531,-2.92383 z m 13.117187,0.90234 c 0.26134,0.10154 0.51105,0.12108 0.77344,0.23243 0.24835,0.33342 0.38663,0.6722 0.58984,1.00781 -0.37596,-0.47146 -0.85003,-0.87103 -1.36328,-1.24024 z m 142.08203,1.19727 c 0.0277,0.2681 -0.0429,0.54848 0.0664,0.79492 0.22159,0.49949 0.57596,0.9538 0.98828,1.38281 0.4007,0.41693 0.86551,0.73069 1.32812,1.09961 -0.56956,-0.14379 -1.11873,-0.2888 -2.04296,-0.40429 l -0.23438,-0.0293 -0.15625,0.17578 c -0.51123,0.57294 -0.786,1.06251 -0.79883,1.5625 -0.0128,0.49999 0.32934,0.91471 0.72461,1.11133 0.708,0.35218 1.63959,0.31343 2.49414,0.16016 -2.1864,0.0778 -3.85982,0.75173 -5.01562,1.89062 0.13314,-0.32673 0.29992,-0.65044 0.33789,-0.98437 0.0603,-0.53015 -0.0228,-1.07678 -0.35938,-1.50782 -0.21436,-0.27456 -0.65113,-0.34318 -1.03125,-0.46679 0.46193,-0.004 0.93228,-0.0114 1.35743,-0.0781 0.54015,-0.0848 1.01586,-0.20694 1.38476,-0.48242 0.18445,-0.13774 0.35242,-0.33775 0.4082,-0.5957 0.0558,-0.25796 -0.0159,-0.52762 -0.15429,-0.75391 -0.27672,-0.45259 -0.7965,-0.84461 -1.66407,-1.32422 l -0.46093,-0.25586 -0.17969,0.4961 -0.16211,0.45312 -0.39648,0.0957 0.0312,-0.006 c -1.09027,0.18706 -1.76018,0.3666 -2.27149,0.55274 0.0913,-0.042 0.1808,-0.0844 0.25781,-0.14258 0.10102,-0.0763 0.1932,-0.16134 0.27344,-0.27344 0.0803,-0.1121 0.18587,-0.26667 0.13281,-0.52343 -0.0265,-0.12839 -0.11486,-0.25998 -0.21484,-0.33399 -0.1,-0.074 -0.2009,-0.10299 -0.29297,-0.11914 0.9542,-0.17788 1.90288,-0.35321 2.82227,-0.54883 1.1419,-0.24296 2.08025,-0.53872 2.82812,-0.94531 z m -1.21094,0.7832 -0.4707,0.0566 0.082,0.4668 c 0.0566,0.32641 0.1898,0.61776 0.49414,0.74219 0.30435,0.12443 0.61014,-0.0221 0.76172,-0.2168 0.15158,-0.19474 0.21479,-0.55913 -0.006,-0.8125 -0.22064,-0.25337 -0.52788,-0.27683 -0.86133,-0.23633 z m -92.19726,0.20508 c 0.95205,0.74685 1.95621,1.29877 3.05859,1.55859 0.78077,0.18403 1.65235,0.0863 2.50391,0.0508 -0.79192,0.37162 -1.54471,0.87006 -2.24219,1.50976 l -0.41406,0.37891 0.45898,0.32031 c 1.88783,1.32554 2.80178,2.71393 3.13086,4.15625 0.32908,1.44233 0.0657,2.97856 -0.54101,4.57617 -1.21334,3.19523 -3.79576,6.55289 -5.30274,9.6543 l -0.0156,0.0273 -0.01,0.0312 c -0.32919,1.02364 -0.62908,1.77643 -0.89062,2.29297 -0.2591,0.5117 -0.49327,0.77867 -0.58985,0.84571 -0.0558,-0.0665 -0.17427,-0.29204 -0.2539,-0.63672 -0.31174,-1.34934 -0.12637,-4.11123 0.51562,-5.73633 7.3e-4,0.52578 -0.0604,1.32029 -0.0254,1.68945 0.0243,0.25618 0.0568,0.47089 0.11133,0.6582 0.0545,0.18732 0.0937,0.41634 0.42383,0.54102 0.16508,0.0623 0.36756,0.0218 0.48437,-0.0469 0.11682,-0.0686 0.18575,-0.14865 0.24805,-0.23242 0.1141,-0.15342 0.20592,-0.34836 0.30664,-0.58984 1.53964,-2.66386 3.94337,-5.78984 4.9668,-8.93164 0.51171,-1.5709 0.67411,-3.16955 0.15429,-4.69336 -0.51981,-1.52382 -1.71663,-2.93083 -3.78515,-4.14258 l -0.0937,-0.0566 -0.10938,-0.006 c -0.38134,-0.0206 -0.73353,0.0699 -0.95117,0.31836 -0.21764,0.2485 -0.23649,0.53055 -0.24414,0.75 -0.008,0.21945 0.001,0.41446 -0.0156,0.55469 -0.0171,0.14022 -0.0425,0.20194 -0.0996,0.25586 l -0.0156,0.0156 c 0.0884,-0.96799 0.10904,-1.92164 -0.0293,-2.84375 -0.11764,-0.78418 -0.37005,-1.54114 -0.73437,-2.26953 z m 92.69531,0.16406 -0.31836,0.42969 c -0.0677,-0.10806 -0.0599,-0.25339 -0.0215,-0.30273 0.0421,-0.0541 0.16284,-0.11526 0.28711,-0.0645 0.12426,0.0508 0.0826,0.10991 0.0527,-0.0625 z m -139.21094,0.25 c 0.0276,0.0627 0.0674,0.12478 0.0937,0.1875 -0.0297,-0.0635 -0.0625,-0.12486 -0.0937,-0.1875 z m 57.62305,0.008 c 3.27282,0.22456 7.11962,2.60201 9.61328,5.82031 0.32287,0.41669 0.54839,0.87373 0.82227,1.3125 -2.03481,-2.85603 -5.05541,-5.18374 -8.33203,-6.21875 -1.15199,-0.36389 -2.32723,-0.49954 -3.49414,-0.51563 0.47318,-0.15288 0.89534,-0.20844 1.39062,-0.39843 z m 75.79492,0.25 -0.0508,0.10742 c -0.0997,0.20491 -0.16274,0.36805 -0.17773,0.55664 -0.007,0.0943 -0.002,0.20022 0.0469,0.31641 0.0492,0.11618 0.15605,0.23194 0.27149,0.2871 0.18742,0.0896 0.3119,0.0402 0.42968,0.004 -0.009,0.004 -0.0342,0.006 -0.043,0.01 -0.25581,0.10299 -0.44633,0.19819 -0.60743,0.36328 -0.0805,0.0825 -0.15754,0.19198 -0.18945,0.33789 -0.0319,0.14591 0.001,0.31412 0.0664,0.42969 0.13051,0.23113 0.30658,0.31156 0.48632,0.38867 0.17975,0.0771 0.38287,0.13402 0.61133,0.18164 0.12362,0.0258 0.29478,0.025 0.43164,0.0449 -0.55905,0.0614 -1.06349,0.069 -1.81836,0.32227 l -0.30078,0.10156 -0.006,0.31445 c -0.009,0.40517 -0.0839,0.69684 -0.10351,1.03906 -0.096,-0.33703 -0.14432,-0.75242 -0.27344,-1.02929 -0.15781,-0.3384 -0.34286,-0.63017 -0.60156,-0.84766 -0.25871,-0.21749 -0.62658,-0.34146 -0.98438,-0.27344 l 0.33399,0.0664 c -0.22646,-0.15112 -0.22895,-0.22454 -0.38868,-0.35742 0.21231,-0.0258 0.43731,-0.0795 0.66016,-0.15235 0.22487,-0.0735 0.44267,-0.16523 0.63477,-0.27148 0.1921,-0.10626 0.37479,-0.18097 0.5039,-0.47266 0.0646,-0.14584 0.0582,-0.40572 -0.0547,-0.5625 -0.11285,-0.15677 -0.24697,-0.21395 -0.375,-0.25781 -0.11966,-0.041 -0.32214,-0.037 -0.47266,-0.0547 0.43527,-0.15008 0.56235,-0.30326 1.125,-0.42773 0.25976,-0.0575 0.5699,-0.10936 0.8457,-0.16406 z m -101.55273,0.28711 c 0.32431,0.78798 0.35734,1.31179 0.25195,1.48437 -0.12856,0.21055 -0.42323,0.26998 -0.75391,0.16602 -0.33067,-0.10397 -0.54346,-0.32668 -0.53124,-0.57618 0.01,-0.20407 0.32917,-0.61362 1.0332,-1.07421 z m -1.51172,0.10937 c -0.22719,0.30161 -0.40643,0.6064 -0.42188,0.92188 -0.0367,0.75006 0.55082,1.28632 1.16211,1.47851 0.28918,0.0909 0.61788,0.10104 0.92579,0.0332 -0.0491,0.2221 -0.14342,0.4214 -0.16993,0.6543 -1.2948,2.32508 -1.92094,5.06539 -2.4375,7.88086 0.35532,-2.25243 0.74416,-4.72439 0.92774,-6.05273 l 0.15039,-1.08203 -0.86914,0.6621 c -1.94815,1.48591 -2.58718,4.02675 -2.87891,6.66407 -0.29173,2.63731 -0.23975,5.43343 -0.63672,7.50976 l -0.0547,0.28711 0.23829,0.16602 c 0.17596,0.12298 0.44267,0.17577 0.65625,0.10937 0.21357,-0.0664 0.3582,-0.20193 0.47851,-0.34961 0.24062,-0.29534 0.41456,-0.68929 0.5918,-1.18945 0.18343,-0.51761 0.33813,-1.35701 0.50586,-2.06055 -0.46481,2.66024 -1.07386,5.23875 -2.08008,7.57227 -0.18691,-0.36717 -0.41508,-0.58707 -0.48828,-1.29102 -0.11827,-1.13741 -0.069,-2.62003 0.0625,-4.20703 0.26306,-3.17399 0.84624,-6.76062 0.9668,-9.11328 l -0.0371,0.1582 c 0.0307,-0.0703 0.1355,-0.19724 -0.0156,-0.45703 -0.0756,-0.12989 -0.23219,-0.21064 -0.33008,-0.22656 -0.0979,-0.0159 -0.15646,-0.003 -0.20117,0.008 -0.17885,0.042 -0.23495,0.096 -0.3457,0.16602 -0.22151,0.1401 -0.52081,0.3609 -0.90235,0.6543 -0.76306,0.58679 -1.83508,1.45375 -3.02148,2.40429 -2.03891,1.63357 -4.21239,3.27296 -5.85742,4.36328 3.40229,-2.49311 6.57698,-5.67898 9.18164,-7.82226 l 0.12109,-0.10157 0.0332,-0.15429 c 0.50047,-2.37044 1.51263,-4.23801 2.8457,-5.7793 -0.13806,0.40202 -0.47862,0.93783 -0.47461,1.24609 0.004,0.33607 0.0885,0.63485 0.28125,0.85938 0.19277,0.22453 0.50065,0.33889 0.7793,0.30859 0.5573,-0.0606 0.97691,-0.53856 1.15039,-1.20507 0.17154,-0.65909 0.0905,-1.5393 -0.38282,-2.59375 0.17453,-0.1489 0.36445,-0.28129 0.54688,-0.42188 z m 103.54687,0.0625 c 0.0584,0.0296 0.10838,0.0893 0.14063,0.14453 l -0.0391,0.0293 c -0.0425,-0.0454 -0.0906,-0.10148 -0.10352,-0.16406 -0.002,-0.009 0.003,-0.002 0.002,-0.01 z m 3.65625,0.54883 c 0.37587,0.26091 0.82191,0.55381 0.89649,0.67578 0.0554,0.0907 0.0414,0.10284 0.043,0.0957 0.002,-0.007 0.002,0.0131 -0.0664,0.0645 -0.13764,0.10278 -0.5179,0.23896 -0.98633,0.3125 -0.46843,0.0735 -1.02775,0.10225 -1.56445,0.0898 -0.5367,-0.0124 -1.05416,-0.0654 -1.43359,-0.14453 -0.0313,-0.007 -0.043,-0.0146 -0.0723,-0.0215 0.41016,-0.15275 1.07446,-0.33192 2.16797,-0.51953 l 0.0156,-0.002 0.87891,-0.21484 0.12109,-0.33594 z m -7.51367,0.11914 c -0.0562,0.0555 -0.16662,0.12719 -0.21093,0.18164 -0.022,0.027 -0.0306,0.0695 -0.0508,0.0977 0.0124,-0.0474 -0.0449,-0.11508 0.0137,-0.1836 0.0241,-0.0282 0.2108,-0.0658 0.24804,-0.0957 z m 10.38477,1.0332 c 1.02209,0.14152 1.85048,0.29848 2.32812,0.45703 0.46839,0.15549 0.57608,0.28917 0.60157,0.29883 -0.0183,0.0153 -0.0114,0.0154 -0.0391,0.0332 -0.17674,0.11377 -0.52234,0.24526 -0.91601,0.33204 -0.78735,0.17355 -1.80154,0.14703 -2.20313,-0.0527 -0.20079,-0.0999 -0.23029,-0.13769 -0.22656,-0.2832 0.003,-0.1158 0.20039,-0.44206 0.45508,-0.78516 z m -111.20899,0.42774 c -0.002,0.16817 0.13146,0.47531 0.0996,0.59765 -0.10735,0.41245 -0.34094,0.53068 -0.375,0.53516 -0.0137,-0.0163 -0.064,-0.0962 -0.0664,-0.2832 -0.002,-0.14413 0.26682,-0.59688 0.34179,-0.84961 z m 115.01172,0.6289 c 0.16005,0.13462 0.37116,0.29289 0.47657,0.40235 0.10512,0.10917 0.17159,0.20097 0.20507,0.25976 -0.0546,0.0309 -0.15278,0.0766 -0.33007,0.11719 -0.37225,0.0852 -1.03942,0.13797 -1.94141,0.14648 0.4427,-0.10123 0.84759,-0.23379 1.16406,-0.4375 0.16437,-0.1058 0.31533,-0.22905 0.42188,-0.41601 0.0112,-0.0197 -0.006,-0.0507 0.004,-0.0723 z m -95.79101,0.23633 c 1.86698,1.1177 2.87193,2.32698 3.30273,3.58985 0.43921,1.2875 0.3137,2.66837 -0.16015,4.12304 -0.92924,2.85264 -3.19797,5.88683 -4.78321,8.59375 -0.0709,-0.92613 -0.0443,-2.49065 0.0703,-4.3457 0.23986,-3.88353 0.79622,-8.79191 1.17383,-10.56836 l -0.13086,0.23437 c 0.25077,-0.23661 0.34607,-0.5489 0.37696,-0.80273 0.0309,-0.25383 0.0141,-0.47379 0.0195,-0.62891 0.005,-0.15511 0.0378,-0.20782 0.0234,-0.1914 -0.007,0.008 0.0827,0.002 0.10742,-0.004 z m 87.14258,0.30469 c 0.54489,0.0329 0.81262,0.1937 0.96484,0.38867 0.15222,0.19497 0.21619,0.47904 0.17383,0.85156 -0.0424,0.37253 -0.19674,0.81219 -0.42774,1.22266 -0.46198,0.82095 -1.25334,1.48506 -1.77148,1.54883 -0.25907,0.0319 -0.44832,-0.0183 -0.67969,-0.28321 -0.23137,-0.26491 -0.4733,-0.7864 -0.61523,-1.64062 l -0.0352,0.25977 c 0.31855,-0.69955 0.24229,-1.34949 0.23242,-1.95118 0.90618,-0.27561 1.67265,-0.42583 2.15821,-0.39648 z m -176.718755,1.51172 c 0.741699,-0.11735 1.521784,-0.11153 2.193359,0.10742 -1.478973,0.56755 -2.958471,0.87328 -4.40039,0.69141 l -0.05273,-0.008 c 0.09785,-0.0593 0.163915,-0.11331 0.285157,-0.17383 0.519989,-0.25952 1.227639,-0.499 1.974609,-0.61718 z m 70.302735,1.77344 c -0.27915,2.03686 -0.59227,4.45585 -1.05664,6.89453 -0.2946,1.54712 -0.61939,2.94288 -0.94141,3.85156 -0.0242,0.0683 -0.042,0.076 -0.0664,0.13867 0.23413,-1.98718 0.30137,-4.15809 0.53515,-6.27148 0.20251,-1.8307 0.73375,-3.35407 1.5293,-4.61328 z m 17.71875,0.10937 c -0.3429,2.36216 -0.72833,5.19784 -0.91406,8.20508 -0.0437,0.70717 -0.004,1.07079 -0.0254,1.6914 -0.57657,-3.20582 0.30682,-6.61045 0.93945,-9.89648 z m 21.45703,0.0195 0.041,0.0527 c -0.006,-0.009 -0.0171,-0.0159 -0.0234,-0.0254 -0.008,-0.009 -0.009,-0.0183 -0.0176,-0.0273 z m 64.5957,0.33594 c 0.0899,0.15876 0.11779,0.44577 0.22657,0.57031 0.39736,0.45497 0.95274,0.64725 1.46679,0.58399 0.47825,-0.0589 0.91078,-0.30791 1.30274,-0.62891 -0.39689,0.82252 -0.68713,1.71618 -0.85742,2.67187 -0.63758,3.57801 0.0691,7.85091 0.79101,11.04102 l 0,0.006 0.002,0.004 c 0.39898,1.58582 0.88155,2.67738 1.49219,3.39257 0.61064,0.71519 1.39576,1.02352 2.17774,0.95508 1.56395,-0.13688 3.07764,-1.47735 4.68359,-2.95508 0.64267,-0.59136 1.2833,-1.03217 1.93555,-1.62304 -0.81066,0.82655 -1.53518,1.8098 -2.06055,3.06054 -2.22261,1.66339 -3.85597,2.08095 -5.03906,1.78907 -1.19499,-0.29482 -2.0831,-1.32611 -2.75586,-2.8418 -1.34552,-3.03138 -1.6697,-7.80819 -1.89063,-10.85547 l -0.0351,-0.49023 -0.48438,0.0781 c -1.0802,0.17456 -2.15912,0.76128 -3.24023,1.50586 0.79512,-0.66534 1.52603,-1.43985 2.34961,-2.05859 l 0.17187,-0.12891 0.008,-0.21484 c 0.0294,-0.77769 -0.0976,-2.38278 -0.24414,-3.86133 z M 78.464984,282.3439 c 0.05919,0.93112 -0.04454,1.78646 0.140625,2.77148 l 0.02148,0.11329 0.07227,0.0879 c 0.121759,0.14927 0.399149,0.28426 0.628906,0.23047 0.229757,-0.0538 0.347654,-0.18577 0.449219,-0.3125 0.203128,-0.25347 0.355361,-0.58493 0.529297,-1.01563 0.03537,-0.0876 0.08112,-0.25458 0.117187,-0.34961 -0.410737,1.8729 -0.656993,3.76886 -0.757812,5.62109 -0.364387,-0.39074 -0.682735,-0.91242 -0.892578,-1.69726 -0.305949,-1.14429 -0.427072,-2.63573 -0.423829,-4.22852 8.78e-4,-0.43079 0.0981,-0.77924 0.115235,-1.2207 z m 53.587886,0.26563 -0.89843,0.0371 0.006,0.16602 0.90039,-0.0391 -0.008,-0.16406 z m 87.37891,2.42968 c 0.55,0.73944 0.83582,1.60122 0.79102,2.69922 -0.0575,1.40963 -0.50904,3.07347 -0.9961,4.78516 -0.48706,1.71168 -1.00916,3.47134 -1.17383,5.13476 -0.16466,1.66343 0.0376,3.26601 1.0625,4.53516 l 0.0781,0.0977 c -0.0359,-0.004 -0.11196,0.0388 -0.14453,0.0312 -0.30124,-0.0695 -0.52633,-0.25297 -0.73047,-0.60352 -0.20414,-0.35055 -0.3592,-0.86292 -0.44531,-1.47852 -0.34447,-2.46239 0.41049,-6.49674 1.29492,-8.67968 l 0.006,-0.0156 0.006,-0.0176 c 0.52017,-1.63838 0.74377,-2.67048 0.70703,-3.38476 -0.0184,-0.35714 -0.10738,-0.68896 -0.38867,-0.90039 -0.28129,-0.21143 -0.63416,-0.18496 -0.91407,-0.0918 -0.0704,0.0234 -0.15385,0.11902 -0.2246,0.15039 0.45078,-0.59175 0.80426,-1.35363 1.07226,-2.26172 z m -113.01758,0.42578 c -0.0118,0.66958 -0.0676,1.35609 -0.0234,2.00977 -0.003,-0.16122 -0.0661,-0.28851 -0.0586,-0.45508 l 0,-0.004 c 3e-5,-7e-4 -3e-5,-10e-4 0,-0.002 0.0287,-0.48462 0.0472,-1.04106 0.082,-1.54883 z m 68.70508,0.51563 c 0.24548,1.68164 0.078,3.37727 -0.7832,4.96484 l -0.47656,0.87891 0.9746,-0.22656 c 1.28685,-0.29809 2.40404,-0.61019 3.61719,-0.97657 -0.39512,0.20379 -0.92217,0.54514 -1.39648,0.81446 l -0.0469,-0.0937 c -0.92624,0.23536 -1.44754,0.19511 -2.01953,0.31445 -0.57127,0.11919 -1.10636,0.45867 -1.73828,1.26953 -8e-4,0.001 -0.001,9.2e-4 -0.002,0.002 -0.17242,0.16342 -0.31723,0.31393 -0.41797,0.45899 -0.11286,0.1625 -0.23433,0.3292 -0.17188,0.62305 0.0312,0.14692 0.14602,0.2952 0.26563,0.36523 0.0541,0.0317 0.0969,0.0277 0.14648,0.041 -0.46768,0.42812 -1.00127,0.76095 -1.40234,1.24414 -1.02701,0.58275 -1.72824,0.90886 -2.12305,1.03125 -0.016,0.005 -0.0104,0.002 -0.0254,0.006 0.041,-0.0859 0.0737,-0.16414 0.13867,-0.27344 0.20062,-0.33758 0.49976,-0.75673 0.80664,-1.17383 0.30688,-0.4171 0.62174,-0.83311 0.86914,-1.19141 0.12371,-0.17915 0.23087,-0.34333 0.31446,-0.49609 0.0836,-0.15276 0.16309,-0.26912 0.16797,-0.50781 0.002,-0.11935 -0.0488,-0.31764 -0.19922,-0.4375 -0.15038,-0.11986 -0.30808,-0.12476 -0.41602,-0.11524 -0.21588,0.0191 -0.36815,0.0934 -0.58789,0.20508 -0.0457,0.0232 -0.16266,0.10936 -0.21289,0.13672 1.06644,-0.98505 2.26182,-2.11799 3.25977,-3.48437 0.75202,-1.02967 1.30952,-2.16669 1.45898,-3.37891 z m 30.44727,2.2168 c 0.28937,0.029 0.61742,0.10504 0.91797,0.14843 -0.99071,0.0552 -1.94662,0.19665 -2.81055,0.44336 -1.76024,0.50267 -3.20178,1.46998 -3.66992,3.0293 -0.14223,0.47373 0.003,1.06672 0.0547,1.62109 -0.14793,-0.26292 -0.22314,-0.51734 -0.39843,-0.7832 0.19494,-1.4085 0.57438,-2.41933 1.09179,-3.08594 0.53343,-0.68723 1.19854,-1.07042 2.00977,-1.27343 0.81122,-0.20302 1.76718,-0.20368 2.80469,-0.0996 z m -99.06836,0.10742 c 0.0579,0.46874 0.13507,0.93284 0.24804,1.38867 -0.15339,-0.42147 -0.18295,-0.91293 -0.24804,-1.38867 z m 82.09179,0.60351 c 1.50527,0.19221 3.04512,0.6816 4.66797,1.60742 l 0.0391,0.0234 0.0449,0.0156 c 0.98799,0.3169 1.66144,0.62113 2.05273,0.8789 0.39129,0.25777 0.44533,0.42711 0.44531,0.46094 -2e-5,0.0338 -0.0509,0.16291 -0.33007,0.3418 -0.27917,0.17888 -0.7296,0.36598 -1.27344,0.52539 -0.1461,0.0428 -0.36691,0.0447 -0.52539,0.084 0.1939,-0.0739 0.38456,-0.15448 0.5,-0.37109 0.13252,-0.24868 0.0552,-0.56382 -0.0684,-0.74219 -0.12355,-0.17837 -0.28316,-0.30676 -0.47461,-0.4375 -0.3829,-0.26148 -0.9097,-0.51436 -1.54688,-0.76953 -1.27435,-0.51033 -2.97585,-1.01122 -4.60351,-1.34961 -0.71355,-0.14835 -1.19908,-0.0765 -1.8418,-0.14844 0.96757,-0.0907 1.93119,-0.24464 2.91406,-0.11914 z m 27.51368,0.0508 c -0.40006,0.35535 -0.79723,0.70369 -1.21094,1.07422 -0.55046,-0.29131 -1.16483,-0.54059 -1.8125,-0.76172 0.81891,0.0399 1.64283,0.0927 2.39258,-0.0742 0.22257,-0.0496 0.41859,-0.16247 0.63086,-0.23829 z m -32.60157,0.76368 c 0.77586,-0.13381 2.26865,0.009 3.83399,0.33398 1.57569,0.32759 3.24318,0.82172 4.44922,1.30469 0.60301,0.24148 1.09345,0.48547 1.375,0.67773 0.0246,0.0168 0.0218,0.0191 0.043,0.0352 -0.12532,0.0314 -0.25721,0.0647 -0.48632,0.0859 -0.59617,0.0553 -1.52782,0.0529 -2.83594,-0.0332 l -0.0371,-0.002 -0.0371,0.004 c -0.0558,0.006 -0.37451,0.005 -0.77734,-0.0234 -0.40283,-0.0285 -0.91807,-0.0795 -1.48633,-0.14844 -1.13653,-0.13786 -2.48858,-0.35501 -3.58985,-0.63476 -0.55063,-0.13988 -1.03879,-0.29525 -1.39453,-0.45508 -0.34762,-0.15619 -0.53497,-0.33371 -0.56054,-0.37305 0.006,-0.0117 0.0205,-0.0463 0.10742,-0.11914 0.19424,-0.16273 0.66858,-0.40482 1.39648,-0.65234 z m -2.07226,0.0957 c -0.12348,0.12536 -0.25033,0.24907 -0.30469,0.41797 -0.0719,0.22324 -0.0362,0.48215 0.0664,0.67383 0.14492,0.27075 0.43421,0.39855 0.70507,0.54882 -0.70528,-0.49519 -1.62281,-0.84101 -2.73242,-1.02929 0.75292,-0.22818 1.52987,-0.40853 2.26563,-0.61133 z m -2.39258,1.50391 c 2.05992,0.35322 3.1262,1.22535 3.65234,2.48046 0.53945,1.28684 0.5015,3.03284 0.14844,4.94922 -0.6831,3.70784 -2.45363,7.89638 -2.80664,10.85547 -1.50441,0.57554 -3.17067,0.41258 -4.82031,-0.35351 -1.71551,-0.79669 -3.37895,-2.20171 -4.67969,-3.88868 -1.30074,-1.68696 -2.23684,-3.65398 -2.54102,-5.54492 -0.30169,-1.8755 0.0122,-3.65505 1.16407,-5.11328 0.53266,-0.37109 0.78253,-0.5101 1.11328,-0.71484 -0.17392,0.23779 -0.33624,0.46222 -0.5293,0.72461 -0.31181,0.4238 -0.62108,0.85496 -0.85351,1.24609 -0.11622,0.19556 -0.21387,0.38127 -0.28321,0.56445 -0.0693,0.18319 -0.1301,0.36685 -0.0742,0.61133 0.0559,0.24448 0.33705,0.47192 0.57227,0.50586 0.23522,0.0339 0.44778,-0.0122 0.71094,-0.0937 0.52631,-0.16315 1.25123,-0.50968 2.31054,-1.11133 l 0.0742,-0.043 0.0527,-0.0664 c 1.86344,-2.30839 4.9291,-4.05562 6.78906,-5.00781 z m 2.92383,0.1875 c 0.0906,0.0472 0.12936,0.13318 0.22851,0.17773 0.43329,0.19468 0.96142,0.36008 1.54297,0.50781 1.16311,0.29546 2.53961,0.51512 3.70313,0.65625 0.58176,0.0706 1.10938,0.12057 1.53125,0.15039 0.42186,0.0298 0.70893,0.0455 0.92968,0.0234 1.10819,0.0705 1.87005,0.0649 2.50782,0.0273 -0.70947,0.11628 -1.35669,0.28692 -2.08008,0.33008 -1.36053,0.0812 -2.64322,0.009 -3.28516,-0.18554 l -0.31054,-0.0937 -0.18555,0.26562 c -4.30161,6.06279 -2.43245,15.20271 4.55469,18.43555 -0.24674,0.025 -0.50294,0.15468 -0.74414,0.125 -1.31628,-0.16197 -2.69031,-1.16156 -4.04688,-3.78711 l -0.002,-0.004 c -0.91565,-1.81391 -1.47969,-2.74134 -2.17774,-3.13281 -0.34934,-0.19591 -0.82303,-0.15616 -1.11133,0.0703 -0.28829,0.22648 -0.45929,0.54008 -0.63085,0.90821 -0.3822,0.8201 -0.78903,1.95362 -1.30469,3.08789 0.47455,-2.68939 1.9767,-6.54387 2.64258,-10.15821 0.36783,-1.9966 0.45084,-3.89896 -0.20313,-5.45898 -0.3209,-0.76549 -0.84181,-1.42387 -1.55859,-1.94531 z m -61.71485,0.29296 c -1.92353,2.00571 -4.71684,2.71483 -7.33593,2.35157 0.48003,0.0139 0.964,0.13323 1.43945,0.0703 2.03326,-0.26908 4.00309,-1.19966 5.89648,-2.42188 z m 111.86914,0.0566 c -0.35183,0.35005 -0.69378,0.61701 -1.04882,0.97851 -2.78563,2.83622 -5.65726,5.9431 -8.38868,7.48828 l -0.0469,0.0254 -0.0391,0.0371 c -1.18952,1.1177 -2.014,1.54548 -2.67383,1.74414 0.79238,-0.53864 1.52507,-1.16547 2.28515,-1.75195 l 0.004,0.004 0.0332,-0.0293 c 3.42689,-2.64865 6.6721,-5.5447 9.875,-8.49609 z m 24.46875,1.19335 c 0.6706,-0.007 1.29303,0.2183 1.94141,0.84961 l 0.12305,0.1211 0.17187,0.008 c 2.10281,0.0885 3.14106,0.71942 3.75977,1.61523 0.46323,0.67071 0.65939,1.56992 0.79687,2.5254 -1.67222,-2.91 -4.27516,-4.42604 -6.90429,-4.33594 -1.24821,0.0428 -2.46179,0.49295 -3.57618,1.20703 0.50027,-0.40064 1.01858,-0.97516 1.50196,-1.25977 0.77821,-0.4582 1.51495,-0.72382 2.18554,-0.73047 z m -51.36523,2.81641 c 0.009,0.0649 0.0274,0.22163 -0.0332,0.49805 -0.15667,0.71521 -0.68177,1.82119 -1.31641,2.95117 0.2424,-0.38416 0.41521,-0.86945 0.36719,-1.58398 l -0.0508,-0.74219 -0.63477,0.38867 c -0.75592,0.4638 -1.17494,0.90301 -1.34961,1.36133 -0.0873,0.22916 -0.10683,0.47521 -0.0293,0.69726 0.0775,0.22206 0.25853,0.40024 0.46679,0.48047 0.38092,0.14675 0.78478,-0.0549 1.08594,-0.37695 -0.45637,0.78907 -0.93882,1.60376 -1.43555,2.21875 l -0.24023,0.29492 0.2539,0.28516 c 0.67667,0.76308 0.90862,1.62125 0.90039,2.40625 -0.008,0.78499 -0.28181,1.49503 -0.56054,1.85351 -0.13937,0.17925 -0.27527,0.25281 -0.30664,0.25977 -0.0314,0.007 0.0164,0.0457 -0.0547,-0.0527 -0.14223,-0.19679 -0.36182,-1.08973 -0.17969,-2.76562 l 0.0781,-0.72461 -0.6836,0.25586 c -0.49022,0.18265 -0.94644,0.55709 -1.45703,1.04297 -0.51058,0.48587 -1.06092,1.08928 -1.65234,1.74219 -1.1575,1.27784 -2.47348,2.73523 -3.83203,3.84179 2.06088,-2.14568 4.15894,-4.36385 5.52343,-6.83008 1.14406,-2.06778 1.62041,-4.33655 1.17969,-6.73828 0.24672,0.41132 0.3206,0.75762 0.64844,1.19922 l 0.23047,0.30859 -0.0137,0.0117 0.084,0.0899 0.002,-0.002 0.004,0.004 0.20313,-0.19726 0.26757,-0.24805 c 0.66463,-0.63817 1.22814,-1.13172 1.65235,-1.44141 0.43696,-0.319 0.74508,-0.45694 0.88281,-0.48828 z m 58.41602,3.89063 c 0.10104,1.1356 0.15838,2.30341 0.59765,3.3125 0.18825,0.43244 0.53882,0.7761 0.87891,1.12304 -1.22659,-0.57505 -2.71138,-0.755 -4.33985,-0.66015 -1.5169,0.0883 -3.11994,0.4054 -4.66601,0.70898 0.40665,-0.14129 0.84331,-0.2718 1.18945,-0.42383 0.62235,-0.27334 1.09859,-0.49407 1.39844,-0.89062 0.075,-0.0991 0.14492,-0.22464 0.16016,-0.39063 0.0152,-0.16599 -0.0532,-0.35502 -0.15625,-0.47461 -0.0241,-0.028 -0.0646,-0.0177 -0.0899,-0.041 0.79497,-0.009 1.63809,0.0628 2.34375,-0.0762 0.73212,-0.1442 1.40164,-0.38909 1.93555,-0.82618 0.38646,-0.31637 0.56281,-0.847 0.74805,-1.36132 z m -9.73438,2.40234 c -0.91642,0.51869 -1.80621,1.02578 -2.21289,1.36328 -0.26865,0.22295 -0.45239,0.3992 -0.5625,0.65625 -0.055,0.12853 -0.0884,0.30195 -0.0332,0.47461 0.0552,0.17266 0.18956,0.29842 0.30859,0.36523 0.0442,0.0248 0.0896,0.009 0.13281,0.0254 -0.16429,0.025 -0.40245,0.083 -0.55468,0.10156 -0.0623,-0.62331 -0.0986,-1.21835 0.0449,-1.57422 0.18461,-0.45787 0.49521,-0.7548 0.95703,-0.98242 0.48898,-0.24101 1.16149,-0.36393 1.91992,-0.42969 z m -86.0957,0.0469 c 0.49788,1.29887 1.13683,2.56789 2.01367,3.70508 0.16413,0.21286 0.37837,0.37218 0.55273,0.57617 l -0.0195,0.0625 c -0.28463,-0.32718 -0.61756,-0.61639 -0.86914,-0.96484 -0.76276,-1.05645 -1.28818,-2.20428 -1.67773,-3.37891 z m 87.14453,0.36133 c 1.35398,-0.0827 2.21985,-0.0553 2.67969,0.0195 -0.18138,0.12463 -0.31305,0.23836 -0.69532,0.40625 -0.57259,0.25149 -1.30075,0.50829 -2.03125,0.72266 -0.73049,0.21437 -1.4676,0.38774 -2.05273,0.47656 -0.24668,0.0374 -0.444,0.0507 -0.61914,0.0566 0.0199,-0.0178 0.009,-0.0145 0.0312,-0.0332 0.42348,-0.35145 1.31873,-0.91421 2.6875,-1.64844 z m 11.09961,2.28907 c 0.38268,0.20608 0.78845,0.39233 1.29687,0.49609 0.42025,1.02304 0.40024,2.0149 0.17578,3.00195 -0.0315,-1.60008 -0.5904,-2.7326 -1.47265,-3.49804 z m -95.55469,1.75976 c 0.5119,0.58533 1.01914,1.18139 1.60156,1.67188 -0.5929,-0.4899 -1.11306,-1.03352 -1.62304,-1.60547 l 0.0215,-0.0664 z m 1.80859,1.82227 c 0.8016,0.65009 1.64701,1.21917 2.5293,1.6289 1.75746,0.81617 3.63439,1.00344 5.37109,0.39258 -0.20837,0.31211 -0.33891,0.67833 -0.5957,0.94531 -2.52821,-0.0725 -5.12323,-1.22513 -7.30469,-2.96679 z m 94.95899,0.80859 c -0.0802,0.20418 -0.0761,0.40853 -0.17774,0.61328 -0.76363,1.53808 -2.13556,3.06629 -3.77343,4.51172 -3.25499,2.87254 -7.51349,5.40329 -10.05469,7.39453 -4.46337,2.1892 -9.3523,3.35981 -14.34766,4.21485 1.84563,-0.33482 3.68002,-0.72799 5.48242,-1.28321 l 0.0625,-0.0137 c 9.5164,-1.54381 16.66137,-8.67929 22.8086,-15.4375 z m -35.13477,17.67383 c -1.02347,0.11143 -2.02548,0.32589 -3.04883,0.42187 -5.51916,0.18394 -10.90213,1.05152 -16.29101,1.90039 2.20214,-0.32678 4.40664,-0.63242 6.59766,-1.07812 4.18253,-0.57801 8.4721,-0.82217 12.74218,-1.24414 z m -23.86328,2.95117 c -1.5357,0.2084 -3.05282,0.50126 -4.60351,0.63867 l -0.002,0 c -11.44479,1.05088 -23.21338,0.21291 -34.8457,0.47461 l -0.01,0 -0.0117,0 c -8.23813,0.58279 -17.22669,-1.13392 -25.29883,0.77344 -22.88182,-0.12126 -45.762186,-0.0478 -68.640628,-0.0508 l -0.0059,0 -0.0059,0 c -7.887208,0.19706 -16.839878,-0.57821 -24.167969,1.80859 -0.340573,-0.17564 -0.521782,-0.30527 -0.576172,-0.35351 0.38595,-0.20538 1.555829,-0.45293 2.921875,-0.61719 1.380586,-0.16602 2.983503,-0.29254 4.373047,-0.42969 1.389544,-0.13715 2.515047,-0.25112 3.173828,-0.51953 l -0.169922,0.0332 c 20.795797,-0.0606 41.592981,-0.0283 62.390631,-0.0273 l 0.0176,0 0.0195,0 c 6.75495,-0.54015 14.19889,1.05024 20.82812,-0.77735 12.42053,0.0924 24.83995,0.0722 37.25781,0.0586 9.15099,0.23923 18.28897,0.0272 27.35547,-1.01172 z"
       id="path3453"
       inkscape:connector-curvature="0" />
  </g>
</svg>
